{
  "title": "300 Rise Of An Empire HC Webrip x264 AC3 TiTAN",
  "uid": 9807825,
  "size": 975572677,
  "categoryP": "video",
  "categoryS": "movies",
  "magnet": "?xt=urn:btih:cab39350ad77ef3bba647118602446b6490185a1&amp;dn=300+Rise+Of+An+Empire+HC+Webrip+x264+AC3+TiTAN&amp;tr=udp%3A%2F%2Ftracker.openbittorrent.com%3A80&amp;tr=udp%3A%2F%2Fopen.demonii.com%3A1337&amp;tr=udp%3A%2F%2Ftracker.coppersurfer.tk%3A6969&amp;tr=udp%3A%2F%2Fexodus.desync.com%3A6969",
  "seeders": 243,
  "leechers": 12,
  "uploader": "xxxlavalxxx",
  "files": -1,
  "time": 1395476956,
  "description": " &lt;a href=&quot;http://www.imdb.com/title/tt1253863/&quot; rel=&quot;nofollow&quot; target=&quot;_NEW&quot;&gt;http://www.imdb.com/title/tt1253863/&lt;/a&gt;\n\n\nGreek general Themistokles leads the charge against invading Persian forces led by mortal-turned-god Xerxes and Artemisia, vengeful commander of the Persian navy.\n\nDirector: Noam Murro\nWriters: Zack Snyder (screenplay), Kurt Johnstad (screenplay)\nStars: Sullivan Stapleton, Eva Green, Lena Headey\nGenres: Action | Drama | War\nCountry: USA\nLanguage: English\n\n\n\nSource 720p R6 Webrip\n\nGeneral\n\nFormat : Matroska\nFormat version : Version 2\nFile size : 930 MiB\nDuration : 1h 43mn\nOverall bit rate mode : Variable\nOverall bit rate : 1 263 Kbps\nEncoded date : UTC 2014-03-23 06:35:53\nWriting application : mkvmerge v6.8.0 ('Theme for Great Cities') 32bit built on Mar 2 2014 21:27:07\nWriting library : libebml v1.3.0 + libmatroska v1.4.1\n\nVideo\nID : 1\nFormat : AVC\nFormat/Info : Advanced Video Codec\nFormat profile : &lt;a class=&quot;__cf_email__&quot; href=&quot;/cdn-cgi/l/email-protection&quot; data-cfemail=&quot;90d8f9f7f8d0dca4bea1&quot;&gt;[email&amp;#160;protected]&lt;/a&gt;&lt;script cf-hash='f9e31' type=&quot;text/javascript&quot;&gt;\n/* &lt;![CDATA[ */!function(){try{var t=&quot;currentScript&quot;in document?document.currentScript:function(){for(var t=document.getElementsByTagName(&quot;script&quot;),e=t.length;e--;)if(t[e].getAttribute(&quot;cf-hash&quot;))return t[e]}();if(t&amp;&amp;t.previousSibling){var e,r,n,i,c=t.previousSibling,a=c.getAttribute(&quot;data-cfemail&quot;);if(a){for(e=&quot;&quot;,r=parseInt(a.substr(0,2),16),n=2;a.length-n;n+=2)i=parseInt(a.substr(n,2),16)^r,e+=String.fromCharCode(i);e=document.createTextNode(e),c.parentNode.replaceChild(e,c)}}}catch(u){}}();/* ]]&gt; */&lt;/script&gt;\nFormat settings, CABAC : Yes\nFormat settings, ReFrames : 3 frames\nCodec ID : V_MPEG4/ISO/AVC\nDuration : 1h 43mn\nBit rate mode : Variable\nBit rate : 982 Kbps\nMaximum bit rate : 40.0 Mbps\nWidth : 720 pixels\nHeight : 288 pixels\nDisplay aspect ratio : 2.500\nFrame rate mode : Constant\nFrame rate : 23.976 fps\nColor space : YUV\nChroma subsampling : 4:2:0\nBit depth : 8 bits\nScan type : Progressive\nBits/(Pixel*Frame) : 0.197\nStream size : 723 MiB (78%)\nWriting library : x264 core 142 r2409 d6b4e63\nDefault : Yes\nForced : No\nColor primaries : BT.709\nTransfer characteristics : BT.709\nMatrix coefficients : BT.709\n\nAudio\nID : 2\nFormat : AC-3\nFormat/Info : Audio Coding 3\nMode extension : CM (complete main)\nFormat settings, Endianness : Big\nCodec ID : A_AC3\nDuration : 1h 43mn\nBit rate mode : Constant\nBit rate : 256 Kbps\nChannel(s) : 2 channels\nChannel positions : Front: L R\nSampling rate : 44.1 KHz\nBit depth : 16 bits\nCompression mode : Lossy\nStream size : 189 MiB (20%)\nDefault : Yes\nForced : No\n\n\nscreens\n &lt;a href=&quot;\nhttp://i.imgur.com/2PRpAUv.jpg&quot; rel=&quot;nofollow&quot; target=&quot;_NEW&quot;&gt;\nhttp://i.imgur.com/2PRpAUv.jpg&lt;/a&gt; &lt;a href=&quot;\nhttp://i.imgur.com/namQyqp.jpg&quot; rel=&quot;nofollow&quot; target=&quot;_NEW&quot;&gt;\nhttp://i.imgur.com/namQyqp.jpg&lt;/a&gt; &lt;a href=&quot;\nhttp://i.imgur.com/ppLkeuu.jpg&quot; rel=&quot;nofollow&quot; target=&quot;_NEW&quot;&gt;\nhttp://i.imgur.com/ppLkeuu.jpg&lt;/a&gt; &lt;a href=&quot;\nhttp://i.imgur.com/V5xPZYe.jpg&quot; rel=&quot;nofollow&quot; target=&quot;_NEW&quot;&gt;\nhttp://i.imgur.com/V5xPZYe.jpg&lt;/a&gt; &lt;a href=&quot;\nhttp://i.imgur.com/jVf73sI.jpg&quot; rel=&quot;nofollow&quot; target=&quot;_NEW&quot;&gt;\nhttp://i.imgur.com/jVf73sI.jpg&lt;/a&gt; &lt;a href=&quot;\nhttp://i.imgur.com/jmEwQfb.jpg&quot; rel=&quot;nofollow&quot; target=&quot;_NEW&quot;&gt;\nhttp://i.imgur.com/jmEwQfb.jpg&lt;/a&gt; &lt;a href=&quot;\nhttp://i.imgur.com/Z8dHbpg.jpg&quot; rel=&quot;nofollow&quot; target=&quot;_NEW&quot;&gt;\nhttp://i.imgur.com/Z8dHbpg.jpg&lt;/a&gt;",
  "parsed": {
    "xt": "urn:btih:cab39350ad77ef3bba647118602446b6490185a1",
    "dn": "300 Rise Of An Empire HC Webrip x264 AC3 TiTAN",
    "tr": [
      "udp://exodus.desync.com:6969",
      "udp://open.demonii.com:1337",
      "udp://tracker.coppersurfer.tk:6969",
      "udp://tracker.openbittorrent.com:80"
    ],
    "infoHash": "cab39350ad77ef3bba647118602446b6490185a1",
    "infoHashBuffer": {
      "type": "Buffer",
      "data": [
        202,
        179,
        147,
        80,
        173,
        119,
        239,
        59,
        186,
        100,
        113,
        24,
        96,
        36,
        70,
        182,
        73,
        1,
        133,
        161
      ]
    },
    "name": "300 Rise Of An Empire HC Webrip x264 AC3 TiTAN",
    "announce": [
      "udp://exodus.desync.com:6969",
      "udp://open.demonii.com:1337",
      "udp://tracker.coppersurfer.tk:6969",
      "udp://tracker.openbittorrent.com:80"
    ],
    "urlList": []
  },
  "previous": 255,
  "peers": 6,
  "last_updated": "2016-12-25T13:57:25.912Z"
}